<?xml version="1.0"?>
<svg xmlns="http://www.w3.org/2000/svg" width="1000" height="600" version="1.0" id="ezcGraph"><defs><linearGradient id="Definition_LinearGradient_170_546_105_546_ffffffff_ffffff7f"><stop offset="0" style="stop-color: #ffffff; stop-opacity: 0.00;"/><stop offset="1" style="stop-color: #ffffff; stop-opacity: 0.50;"/></linearGradient><linearGradient xmlns:xlink="http://www.w3.org/1999/xlink" id="LinearGradient_170_546_105_546_ffffffff_ffffff7f" x1="170.0241" y1="546.0000" x2="105.6559" y2="546.0000" gradientUnits="userSpaceOnUse" xlink:href="#Definition_LinearGradient_170_546_105_546_ffffffff_ffffff7f"/><linearGradient id="Definition_LinearGradient_213_502_105_546_ffffffff_ffffff7f"><stop offset="0" style="stop-color: #ffffff; stop-opacity: 0.00;"/><stop offset="1" style="stop-color: #ffffff; stop-opacity: 0.50;"/></linearGradient><linearGradient xmlns:xlink="http://www.w3.org/1999/xlink" id="LinearGradient_213_502_105_546_ffffffff_ffffff7f" x1="213.2241" y1="502.8000" x2="105.6559" y2="546.0000" gradientUnits="userSpaceOnUse" xlink:href="#Definition_LinearGradient_213_502_105_546_ffffffff_ffffff7f"/><linearGradient id="Definition_LinearGradient_245_546_181_546_ffffffff_ffffff7f"><stop offset="0" style="stop-color: #ffffff; stop-opacity: 0.00;"/><stop offset="1" style="stop-color: #ffffff; stop-opacity: 0.50;"/></linearGradient><linearGradient xmlns:xlink="http://www.w3.org/1999/xlink" id="LinearGradient_245_546_181_546_ffffffff_ffffff7f" x1="245.7041" y1="546.0000" x2="181.3359" y2="546.0000" gradientUnits="userSpaceOnUse" xlink:href="#Definition_LinearGradient_245_546_181_546_ffffffff_ffffff7f"/><linearGradient id="Definition_LinearGradient_288_502_181_546_ffffffff_ffffff7f"><stop offset="0" style="stop-color: #ffffff; stop-opacity: 0.00;"/><stop offset="1" style="stop-color: #ffffff; stop-opacity: 0.50;"/></linearGradient><linearGradient xmlns:xlink="http://www.w3.org/1999/xlink" id="LinearGradient_288_502_181_546_ffffffff_ffffff7f" x1="288.9041" y1="502.8000" x2="181.3359" y2="546.0000" gradientUnits="userSpaceOnUse" xlink:href="#Definition_LinearGradient_288_502_181_546_ffffffff_ffffff7f"/><linearGradient id="Definition_LinearGradient_321_546_257_546_ffffffff_ffffff7f"><stop offset="0" style="stop-color: #ffffff; stop-opacity: 0.00;"/><stop offset="1" style="stop-color: #ffffff; stop-opacity: 0.50;"/></linearGradient><linearGradient xmlns:xlink="http://www.w3.org/1999/xlink" id="LinearGradient_321_546_257_546_ffffffff_ffffff7f" x1="321.3841" y1="546.0000" x2="257.0159" y2="546.0000" gradientUnits="userSpaceOnUse" xlink:href="#Definition_LinearGradient_321_546_257_546_ffffffff_ffffff7f"/><linearGradient id="Definition_LinearGradient_364_502_257_546_ffffffff_ffffff7f"><stop offset="0" style="stop-color: #ffffff; stop-opacity: 0.00;"/><stop offset="1" style="stop-color: #ffffff; stop-opacity: 0.50;"/></linearGradient><linearGradient xmlns:xlink="http://www.w3.org/1999/xlink" id="LinearGradient_364_502_257_546_ffffffff_ffffff7f" x1="364.5841" y1="502.8000" x2="257.0159" y2="546.0000" gradientUnits="userSpaceOnUse" xlink:href="#Definition_LinearGradient_364_502_257_546_ffffffff_ffffff7f"/><linearGradient id="Definition_LinearGradient_397_546_332_546_ffffffff_ffffff7f"><stop offset="0" style="stop-color: #ffffff; stop-opacity: 0.00;"/><stop offset="1" style="stop-color: #ffffff; stop-opacity: 0.50;"/></linearGradient><linearGradient xmlns:xlink="http://www.w3.org/1999/xlink" id="LinearGradient_397_546_332_546_ffffffff_ffffff7f" x1="397.0641" y1="546.0000" x2="332.6959" y2="546.0000" gradientUnits="userSpaceOnUse" xlink:href="#Definition_LinearGradient_397_546_332_546_ffffffff_ffffff7f"/><linearGradient id="Definition_LinearGradient_440_502_332_546_ffffffff_ffffff7f"><stop offset="0" style="stop-color: #ffffff; stop-opacity: 0.00;"/><stop offset="1" style="stop-color: #ffffff; stop-opacity: 0.50;"/></linearGradient><linearGradient xmlns:xlink="http://www.w3.org/1999/xlink" id="LinearGradient_440_502_332_546_ffffffff_ffffff7f" x1="440.2641" y1="502.8000" x2="332.6959" y2="546.0000" gradientUnits="userSpaceOnUse" xlink:href="#Definition_LinearGradient_440_502_332_546_ffffffff_ffffff7f"/><linearGradient id="Definition_LinearGradient_515_114_408_157_ffffffff_ffffff7f"><stop offset="0" style="stop-color: #ffffff; stop-opacity: 0.00;"/><stop offset="1" style="stop-color: #ffffff; stop-opacity: 0.50;"/></linearGradient><linearGradient xmlns:xlink="http://www.w3.org/1999/xlink" id="LinearGradient_515_114_408_157_ffffffff_ffffff7f" x1="515.9441" y1="114.0000" x2="408.3759" y2="157.2000" gradientUnits="userSpaceOnUse" xlink:href="#Definition_LinearGradient_515_114_408_157_ffffffff_ffffff7f"/><linearGradient id="Definition_LinearGradient_472_546_408_157_ffffffff_ffffff7f"><stop offset="0" style="stop-color: #ffffff; stop-opacity: 0.00;"/><stop offset="1" style="stop-color: #ffffff; stop-opacity: 0.50;"/></linearGradient><linearGradient xmlns:xlink="http://www.w3.org/1999/xlink" id="LinearGradient_472_546_408_157_ffffffff_ffffff7f" x1="472.7441" y1="546.0000" x2="408.3759" y2="157.2000" gradientUnits="userSpaceOnUse" xlink:href="#Definition_LinearGradient_472_546_408_157_ffffffff_ffffff7f"/><linearGradient id="Definition_LinearGradient_591_243_484_286_ffffffff_ffffff7f"><stop offset="0" style="stop-color: #ffffff; stop-opacity: 0.00;"/><stop offset="1" style="stop-color: #ffffff; stop-opacity: 0.50;"/></linearGradient><linearGradient xmlns:xlink="http://www.w3.org/1999/xlink" id="LinearGradient_591_243_484_286_ffffffff_ffffff7f" x1="591.6241" y1="243.6000" x2="484.0559" y2="286.8000" gradientUnits="userSpaceOnUse" xlink:href="#Definition_LinearGradient_591_243_484_286_ffffffff_ffffff7f"/><linearGradient id="Definition_LinearGradient_548_546_484_286_ffffffff_ffffff7f"><stop offset="0" style="stop-color: #ffffff; stop-opacity: 0.00;"/><stop offset="1" style="stop-color: #ffffff; stop-opacity: 0.50;"/></linearGradient><linearGradient xmlns:xlink="http://www.w3.org/1999/xlink" id="LinearGradient_548_546_484_286_ffffffff_ffffff7f" x1="548.4241" y1="546.0000" x2="484.0559" y2="286.8000" gradientUnits="userSpaceOnUse" xlink:href="#Definition_LinearGradient_548_546_484_286_ffffffff_ffffff7f"/><linearGradient id="Definition_LinearGradient_667_373_559_416_ffffffff_ffffff7f"><stop offset="0" style="stop-color: #ffffff; stop-opacity: 0.00;"/><stop offset="1" style="stop-color: #ffffff; stop-opacity: 0.50;"/></linearGradient><linearGradient xmlns:xlink="http://www.w3.org/1999/xlink" id="LinearGradient_667_373_559_416_ffffffff_ffffff7f" x1="667.3041" y1="373.2000" x2="559.7359" y2="416.4000" gradientUnits="userSpaceOnUse" xlink:href="#Definition_LinearGradient_667_373_559_416_ffffffff_ffffff7f"/><linearGradient id="Definition_LinearGradient_624_546_559_416_ffffffff_ffffff7f"><stop offset="0" style="stop-color: #ffffff; stop-opacity: 0.00;"/><stop offset="1" style="stop-color: #ffffff; stop-opacity: 0.50;"/></linearGradient><linearGradient xmlns:xlink="http://www.w3.org/1999/xlink" id="LinearGradient_624_546_559_416_ffffffff_ffffff7f" x1="624.1041" y1="546.0000" x2="559.7359" y2="416.4000" gradientUnits="userSpaceOnUse" xlink:href="#Definition_LinearGradient_624_546_559_416_ffffffff_ffffff7f"/><linearGradient id="Definition_LinearGradient_742_373_635_416_ffffffff_ffffff7f"><stop offset="0" style="stop-color: #ffffff; stop-opacity: 0.00;"/><stop offset="1" style="stop-color: #ffffff; stop-opacity: 0.50;"/></linearGradient><linearGradient xmlns:xlink="http://www.w3.org/1999/xlink" id="LinearGradient_742_373_635_416_ffffffff_ffffff7f" x1="742.9841" y1="373.2000" x2="635.4159" y2="416.4000" gradientUnits="userSpaceOnUse" xlink:href="#Definition_LinearGradient_742_373_635_416_ffffffff_ffffff7f"/><linearGradient id="Definition_LinearGradient_699_546_635_416_ffffffff_ffffff7f"><stop offset="0" style="stop-color: #ffffff; stop-opacity: 0.00;"/><stop offset="1" style="stop-color: #ffffff; stop-opacity: 0.50;"/></linearGradient><linearGradient xmlns:xlink="http://www.w3.org/1999/xlink" id="LinearGradient_699_546_635_416_ffffffff_ffffff7f" x1="699.7841" y1="546.0000" x2="635.4159" y2="416.4000" gradientUnits="userSpaceOnUse" xlink:href="#Definition_LinearGradient_699_546_635_416_ffffffff_ffffff7f"/><linearGradient id="Definition_LinearGradient_775_546_711_546_ffffffff_ffffff7f"><stop offset="0" style="stop-color: #ffffff; stop-opacity: 0.00;"/><stop offset="1" style="stop-color: #ffffff; stop-opacity: 0.50;"/></linearGradient><linearGradient xmlns:xlink="http://www.w3.org/1999/xlink" id="LinearGradient_775_546_711_546_ffffffff_ffffff7f" x1="775.4641" y1="546.0000" x2="711.0959" y2="546.0000" gradientUnits="userSpaceOnUse" xlink:href="#Definition_LinearGradient_775_546_711_546_ffffffff_ffffff7f"/><linearGradient id="Definition_LinearGradient_818_502_711_546_ffffffff_ffffff7f"><stop offset="0" style="stop-color: #ffffff; stop-opacity: 0.00;"/><stop offset="1" style="stop-color: #ffffff; stop-opacity: 0.50;"/></linearGradient><linearGradient xmlns:xlink="http://www.w3.org/1999/xlink" id="LinearGradient_818_502_711_546_ffffffff_ffffff7f" x1="818.6641" y1="502.8000" x2="711.0959" y2="546.0000" gradientUnits="userSpaceOnUse" xlink:href="#Definition_LinearGradient_818_502_711_546_ffffffff_ffffff7f"/><linearGradient id="Definition_LinearGradient_851_546_786_546_ffffffff_ffffff7f"><stop offset="0" style="stop-color: #ffffff; stop-opacity: 0.00;"/><stop offset="1" style="stop-color: #ffffff; stop-opacity: 0.50;"/></linearGradient><linearGradient xmlns:xlink="http://www.w3.org/1999/xlink" id="LinearGradient_851_546_786_546_ffffffff_ffffff7f" x1="851.1441" y1="546.0000" x2="786.7759" y2="546.0000" gradientUnits="userSpaceOnUse" xlink:href="#Definition_LinearGradient_851_546_786_546_ffffffff_ffffff7f"/><linearGradient id="Definition_LinearGradient_894_502_786_546_ffffffff_ffffff7f"><stop offset="0" style="stop-color: #ffffff; stop-opacity: 0.00;"/><stop offset="1" style="stop-color: #ffffff; stop-opacity: 0.50;"/></linearGradient><linearGradient xmlns:xlink="http://www.w3.org/1999/xlink" id="LinearGradient_894_502_786_546_ffffffff_ffffff7f" x1="894.3441" y1="502.8000" x2="786.7759" y2="546.0000" gradientUnits="userSpaceOnUse" xlink:href="#Definition_LinearGradient_894_502_786_546_ffffffff_ffffff7f"/></defs><g id="ezcGraphChart" color-rendering="optimizeQuality" shape-rendering="geometricPrecision" text-rendering="optimizeLegibility"><path d=" M 0.0000,600.0000 L 0.0000,0.0000 L 1000.0000,0.0000 L 1000.0000,600.0000 L 0.0000,600.0000 z " style="fill: #eeeeec; fill-opacity: 1.00; stroke: none;" id="ezcGraphPolygon_1"/><path d=" M 0.0000,60.0000 L 0.0000,0.0000 L 1000.0000,0.0000 L 1000.0000,60.0000 L 0.0000,60.0000 z " style="fill: #000000; fill-opacity: 0.00; stroke: none;" id="ezcGraphPolygon_2"/><path d=" M 0.0000,551.4000 L 54.0000,497.4000 L 1000.0000,497.4000 L 946.0000,551.4000 L 0.0000,551.4000 z " style="fill: #2e3436; fill-opacity: 0.20; stroke: none;" id="ezcGraphPolygon_4"/><path d=" M 54.0000,497.4000 L 1000.0000,497.4000" style="fill: none; stroke: #2e3436; stroke-width: 1; stroke-opacity: 1.00; stroke-linecap: round; stroke-linejoin: round;" id="ezcGraphLine_5"/><path d=" M 992.0000,493.4000 L 1000.0000,497.4000 L 992.0000,501.4000 L 992.0000,493.4000 z " style="fill: #2e3436; fill-opacity: 1.00; stroke: none;" id="ezcGraphPolygon_6"/><path d=" M 94.6000,600.0000 L 148.6000,546.0000 L 148.6000,60.0000 L 94.6000,114.0000 L 94.6000,600.0000 z " style="fill: #2e3436; fill-opacity: 0.20; stroke: none;" id="ezcGraphPolygon_8"/><path d=" M 148.6000,546.0000 L 148.6000,60.0000" style="fill: none; stroke: #2e3436; stroke-width: 1; stroke-opacity: 1.00; stroke-linecap: round; stroke-linejoin: round;" id="ezcGraphLine_9"/><path d=" M 144.6000,68.0000 L 148.6000,60.0000 L 152.6000,68.0000 L 144.6000,68.0000 z " style="fill: #2e3436; fill-opacity: 1.00; stroke: none;" id="ezcGraphPolygon_10"/><path d=" M 224.2800,497.4000 L 224.2800,108.6000" style="fill: none; stroke: #000000; stroke-width: 1; stroke-opacity: 0.00; stroke-linecap: round; stroke-linejoin: round;" id="ezcGraphLine_13"/><path d=" M 170.2800,548.7000 L 224.2800,494.7000 L 224.2800,500.1000 L 170.2800,554.1000 L 170.2800,548.7000 z " style="fill: #2e3436; fill-opacity: 0.20; stroke: none;" id="ezcGraphPolygon_14"/><path d=" M 223.7800,495.9071 L 223.7800,499.8929 L 170.7800,552.8929 L 170.7800,548.9071 L 223.7800,495.9071 z " style="fill: none; stroke: #2e3436; stroke-width: 1; stroke-opacity: 1.00; stroke-linecap: round; stroke-linejoin: round;" id="ezcGraphPolygon_15"/><path d=" M 299.9600,497.4000 L 299.9600,108.6000" style="fill: none; stroke: #000000; stroke-width: 1; stroke-opacity: 0.00; stroke-linecap: round; stroke-linejoin: round;" id="ezcGraphLine_17"/><path d=" M 245.9600,548.7000 L 299.9600,494.7000 L 299.9600,500.1000 L 245.9600,554.1000 L 245.9600,548.7000 z " style="fill: #2e3436; fill-opacity: 0.20; stroke: none;" id="ezcGraphPolygon_18"/><path d=" M 299.4600,495.9071 L 299.4600,499.8929 L 246.4600,552.8929 L 246.4600,548.9071 L 299.4600,495.9071 z " style="fill: none; stroke: #2e3436; stroke-width: 1; stroke-opacity: 1.00; stroke-linecap: round; stroke-linejoin: round;" id="ezcGraphPolygon_19"/><path d=" M 375.6400,497.4000 L 375.6400,108.6000" style="fill: none; stroke: #000000; stroke-width: 1; stroke-opacity: 0.00; stroke-linecap: round; stroke-linejoin: round;" id="ezcGraphLine_21"/><path d=" M 321.6400,548.7000 L 375.6400,494.7000 L 375.6400,500.1000 L 321.6400,554.1000 L 321.6400,548.7000 z " style="fill: #2e3436; fill-opacity: 0.20; stroke: none;" id="ezcGraphPolygon_22"/><path d=" M 375.1400,495.9071 L 375.1400,499.8929 L 322.1400,552.8929 L 322.1400,548.9071 L 375.1400,495.9071 z " style="fill: none; stroke: #2e3436; stroke-width: 1; stroke-opacity: 1.00; stroke-linecap: round; stroke-linejoin: round;" id="ezcGraphPolygon_23"/><path d=" M 451.3200,497.4000 L 451.3200,108.6000" style="fill: none; stroke: #000000; stroke-width: 1; stroke-opacity: 0.00; stroke-linecap: round; stroke-linejoin: round;" id="ezcGraphLine_25"/><path d=" M 397.3200,548.7000 L 451.3200,494.7000 L 451.3200,500.1000 L 397.3200,554.1000 L 397.3200,548.7000 z " style="fill: #2e3436; fill-opacity: 0.20; stroke: none;" id="ezcGraphPolygon_26"/><path d=" M 450.8200,495.9071 L 450.8200,499.8929 L 397.8200,552.8929 L 397.8200,548.9071 L 450.8200,495.9071 z " style="fill: none; stroke: #2e3436; stroke-width: 1; stroke-opacity: 1.00; stroke-linecap: round; stroke-linejoin: round;" id="ezcGraphPolygon_27"/><path d=" M 527.0000,497.4000 L 527.0000,108.6000" style="fill: none; stroke: #000000; stroke-width: 1; stroke-opacity: 0.00; stroke-linecap: round; stroke-linejoin: round;" id="ezcGraphLine_29"/><path d=" M 473.0000,548.7000 L 527.0000,494.7000 L 527.0000,500.1000 L 473.0000,554.1000 L 473.0000,548.7000 z " style="fill: #2e3436; fill-opacity: 0.20; stroke: none;" id="ezcGraphPolygon_30"/><path d=" M 526.5000,495.9071 L 526.5000,499.8929 L 473.5000,552.8929 L 473.5000,548.9071 L 526.5000,495.9071 z " style="fill: none; stroke: #2e3436; stroke-width: 1; stroke-opacity: 1.00; stroke-linecap: round; stroke-linejoin: round;" id="ezcGraphPolygon_31"/><path d=" M 602.6800,497.4000 L 602.6800,108.6000" style="fill: none; stroke: #000000; stroke-width: 1; stroke-opacity: 0.00; stroke-linecap: round; stroke-linejoin: round;" id="ezcGraphLine_33"/><path d=" M 548.6800,548.7000 L 602.6800,494.7000 L 602.6800,500.1000 L 548.6800,554.1000 L 548.6800,548.7000 z " style="fill: #2e3436; fill-opacity: 0.20; stroke: none;" id="ezcGraphPolygon_34"/><path d=" M 602.1800,495.9071 L 602.1800,499.8929 L 549.1800,552.8929 L 549.1800,548.9071 L 602.1800,495.9071 z " style="fill: none; stroke: #2e3436; stroke-width: 1; stroke-opacity: 1.00; stroke-linecap: round; stroke-linejoin: round;" id="ezcGraphPolygon_35"/><path d=" M 678.3600,497.4000 L 678.3600,108.6000" style="fill: none; stroke: #000000; stroke-width: 1; stroke-opacity: 0.00; stroke-linecap: round; stroke-linejoin: round;" id="ezcGraphLine_37"/><path d=" M 624.3600,548.7000 L 678.3600,494.7000 L 678.3600,500.1000 L 624.3600,554.1000 L 624.3600,548.7000 z " style="fill: #2e3436; fill-opacity: 0.20; stroke: none;" id="ezcGraphPolygon_38"/><path d=" M 677.8600,495.9071 L 677.8600,499.8929 L 624.8600,552.8929 L 624.8600,548.9071 L 677.8600,495.9071 z " style="fill: none; stroke: #2e3436; stroke-width: 1; stroke-opacity: 1.00; stroke-linecap: round; stroke-linejoin: round;" id="ezcGraphPolygon_39"/><path d=" M 754.0400,497.4000 L 754.0400,108.6000" style="fill: none; stroke: #000000; stroke-width: 1; stroke-opacity: 0.00; stroke-linecap: round; stroke-linejoin: round;" id="ezcGraphLine_41"/><path d=" M 700.0400,548.7000 L 754.0400,494.7000 L 754.0400,500.1000 L 700.0400,554.1000 L 700.0400,548.7000 z " style="fill: #2e3436; fill-opacity: 0.20; stroke: none;" id="ezcGraphPolygon_42"/><path d=" M 753.5400,495.9071 L 753.5400,499.8929 L 700.5400,552.8929 L 700.5400,548.9071 L 753.5400,495.9071 z " style="fill: none; stroke: #2e3436; stroke-width: 1; stroke-opacity: 1.00; stroke-linecap: round; stroke-linejoin: round;" id="ezcGraphPolygon_43"/><path d=" M 829.7200,497.4000 L 829.7200,108.6000" style="fill: none; stroke: #000000; stroke-width: 1; stroke-opacity: 0.00; stroke-linecap: round; stroke-linejoin: round;" id="ezcGraphLine_45"/><path d=" M 775.7200,548.7000 L 829.7200,494.7000 L 829.7200,500.1000 L 775.7200,554.1000 L 775.7200,548.7000 z " style="fill: #2e3436; fill-opacity: 0.20; stroke: none;" id="ezcGraphPolygon_46"/><path d=" M 829.2200,495.9071 L 829.2200,499.8929 L 776.2200,552.8929 L 776.2200,548.9071 L 829.2200,495.9071 z " style="fill: none; stroke: #2e3436; stroke-width: 1; stroke-opacity: 1.00; stroke-linecap: round; stroke-linejoin: round;" id="ezcGraphPolygon_47"/><path d=" M 905.4000,497.4000 L 905.4000,108.6000" style="fill: none; stroke: #000000; stroke-width: 1; stroke-opacity: 0.00; stroke-linecap: round; stroke-linejoin: round;" id="ezcGraphLine_49"/><path d=" M 851.4000,548.7000 L 905.4000,494.7000 L 905.4000,500.1000 L 851.4000,554.1000 L 851.4000,548.7000 z " style="fill: #2e3436; fill-opacity: 0.20; stroke: none;" id="ezcGraphPolygon_50"/><path d=" M 904.9000,495.9071 L 904.9000,499.8929 L 851.9000,552.8929 L 851.9000,548.9071 L 904.9000,495.9071 z " style="fill: none; stroke: #2e3436; stroke-width: 1; stroke-opacity: 1.00; stroke-linecap: round; stroke-linejoin: round;" id="ezcGraphPolygon_51"/><path d=" M 905.4000,465.0000 L 148.6000,465.0000" style="fill: none; stroke: #000000; stroke-width: 1; stroke-opacity: 0.00; stroke-linecap: round; stroke-linejoin: round;" id="ezcGraphLine_53"/><path d=" M 94.6000,519.0000 L 148.6000,465.0000 L 149.5460,465.0000 L 95.5460,519.0000 L 94.6000,519.0000 z " style="fill: #2e3436; fill-opacity: 0.20; stroke: none;" id="ezcGraphPolygon_54"/><path d=" M 148.8071,465.5000 L 148.3389,465.5000 L 95.3389,518.5000 L 95.8071,518.5000 L 148.8071,465.5000 z " style="fill: none; stroke: #2e3436; stroke-width: 1; stroke-opacity: 1.00; stroke-linecap: round; stroke-linejoin: round;" id="ezcGraphPolygon_55"/><path d=" M 905.4000,432.6000 L 148.6000,432.6000" style="fill: none; stroke: #000000; stroke-width: 1; stroke-opacity: 0.00; stroke-linecap: round; stroke-linejoin: round;" id="ezcGraphLine_56"/><path d=" M 94.6000,486.6000 L 148.6000,432.6000 L 149.5460,432.6000 L 95.5460,486.6000 L 94.6000,486.6000 z " style="fill: #2e3436; fill-opacity: 0.20; stroke: none;" id="ezcGraphPolygon_57"/><path d=" M 148.8071,433.1000 L 148.3389,433.1000 L 95.3389,486.1000 L 95.8071,486.1000 L 148.8071,433.1000 z " style="fill: none; stroke: #2e3436; stroke-width: 1; stroke-opacity: 1.00; stroke-linecap: round; stroke-linejoin: round;" id="ezcGraphPolygon_58"/><path d=" M 905.4000,400.2000 L 148.6000,400.2000" style="fill: none; stroke: #000000; stroke-width: 1; stroke-opacity: 0.00; stroke-linecap: round; stroke-linejoin: round;" id="ezcGraphLine_59"/><path d=" M 94.6000,454.2000 L 148.6000,400.2000 L 149.5460,400.2000 L 95.5460,454.2000 L 94.6000,454.2000 z " style="fill: #2e3436; fill-opacity: 0.20; stroke: none;" id="ezcGraphPolygon_60"/><path d=" M 148.8071,400.7000 L 148.3389,400.7000 L 95.3389,453.7000 L 95.8071,453.7000 L 148.8071,400.7000 z " style="fill: none; stroke: #2e3436; stroke-width: 1; stroke-opacity: 1.00; stroke-linecap: round; stroke-linejoin: round;" id="ezcGraphPolygon_61"/><path d=" M 905.4000,367.8000 L 148.6000,367.8000" style="fill: none; stroke: #000000; stroke-width: 1; stroke-opacity: 0.00; stroke-linecap: round; stroke-linejoin: round;" id="ezcGraphLine_62"/><path d=" M 94.6000,421.8000 L 148.6000,367.8000 L 151.4380,367.8000 L 97.4380,421.8000 L 94.6000,421.8000 z " style="fill: #2e3436; fill-opacity: 0.20; stroke: none;" id="ezcGraphPolygon_63"/><path d=" M 148.8071,368.3000 L 150.2309,368.3000 L 97.2309,421.3000 L 95.8071,421.3000 L 148.8071,368.3000 z " style="fill: none; stroke: #2e3436; stroke-width: 1; stroke-opacity: 1.00; stroke-linecap: round; stroke-linejoin: round;" id="ezcGraphPolygon_64"/><path d=" M 905.4000,335.4000 L 148.6000,335.4000" style="fill: none; stroke: #000000; stroke-width: 1; stroke-opacity: 0.00; stroke-linecap: round; stroke-linejoin: round;" id="ezcGraphLine_66"/><path d=" M 94.6000,389.4000 L 148.6000,335.4000 L 149.5460,335.4000 L 95.5460,389.4000 L 94.6000,389.4000 z " style="fill: #2e3436; fill-opacity: 0.20; stroke: none;" id="ezcGraphPolygon_67"/><path d=" M 148.8071,335.9000 L 148.3389,335.9000 L 95.3389,388.9000 L 95.8071,388.9000 L 148.8071,335.9000 z " style="fill: none; stroke: #2e3436; stroke-width: 1; stroke-opacity: 1.00; stroke-linecap: round; stroke-linejoin: round;" id="ezcGraphPolygon_68"/><path d=" M 905.4000,303.0000 L 148.6000,303.0000" style="fill: none; stroke: #000000; stroke-width: 1; stroke-opacity: 0.00; stroke-linecap: round; stroke-linejoin: round;" id="ezcGraphLine_69"/><path d=" M 94.6000,357.0000 L 148.6000,303.0000 L 149.5460,303.0000 L 95.5460,357.0000 L 94.6000,357.0000 z " style="fill: #2e3436; fill-opacity: 0.20; stroke: none;" id="ezcGraphPolygon_70"/><path d=" M 148.8071,303.5000 L 148.3389,303.5000 L 95.3389,356.5000 L 95.8071,356.5000 L 148.8071,303.5000 z " style="fill: none; stroke: #2e3436; stroke-width: 1; stroke-opacity: 1.00; stroke-linecap: round; stroke-linejoin: round;" id="ezcGraphPolygon_71"/><path d=" M 905.4000,270.6000 L 148.6000,270.6000" style="fill: none; stroke: #000000; stroke-width: 1; stroke-opacity: 0.00; stroke-linecap: round; stroke-linejoin: round;" id="ezcGraphLine_72"/><path d=" M 94.6000,324.6000 L 148.6000,270.6000 L 149.5460,270.6000 L 95.5460,324.6000 L 94.6000,324.6000 z " style="fill: #2e3436; fill-opacity: 0.20; stroke: none;" id="ezcGraphPolygon_73"/><path d=" M 148.8071,271.1000 L 148.3389,271.1000 L 95.3389,324.1000 L 95.8071,324.1000 L 148.8071,271.1000 z " style="fill: none; stroke: #2e3436; stroke-width: 1; stroke-opacity: 1.00; stroke-linecap: round; stroke-linejoin: round;" id="ezcGraphPolygon_74"/><path d=" M 905.4000,238.2000 L 148.6000,238.2000" style="fill: none; stroke: #000000; stroke-width: 1; stroke-opacity: 0.00; stroke-linecap: round; stroke-linejoin: round;" id="ezcGraphLine_75"/><path d=" M 94.6000,292.2000 L 148.6000,238.2000 L 151.4380,238.2000 L 97.4380,292.2000 L 94.6000,292.2000 z " style="fill: #2e3436; fill-opacity: 0.20; stroke: none;" id="ezcGraphPolygon_76"/><path d=" M 148.8071,238.7000 L 150.2309,238.7000 L 97.2309,291.7000 L 95.8071,291.7000 L 148.8071,238.7000 z " style="fill: none; stroke: #2e3436; stroke-width: 1; stroke-opacity: 1.00; stroke-linecap: round; stroke-linejoin: round;" id="ezcGraphPolygon_77"/><path d=" M 905.4000,205.8000 L 148.6000,205.8000" style="fill: none; stroke: #000000; stroke-width: 1; stroke-opacity: 0.00; stroke-linecap: round; stroke-linejoin: round;" id="ezcGraphLine_79"/><path d=" M 94.6000,259.8000 L 148.6000,205.8000 L 149.5460,205.8000 L 95.5460,259.8000 L 94.6000,259.8000 z " style="fill: #2e3436; fill-opacity: 0.20; stroke: none;" id="ezcGraphPolygon_80"/><path d=" M 148.8071,206.3000 L 148.3389,206.3000 L 95.3389,259.3000 L 95.8071,259.3000 L 148.8071,206.3000 z " style="fill: none; stroke: #2e3436; stroke-width: 1; stroke-opacity: 1.00; stroke-linecap: round; stroke-linejoin: round;" id="ezcGraphPolygon_81"/><path d=" M 905.4000,173.4000 L 148.6000,173.4000" style="fill: none; stroke: #000000; stroke-width: 1; stroke-opacity: 0.00; stroke-linecap: round; stroke-linejoin: round;" id="ezcGraphLine_82"/><path d=" M 94.6000,227.4000 L 148.6000,173.4000 L 149.5460,173.4000 L 95.5460,227.4000 L 94.6000,227.4000 z " style="fill: #2e3436; fill-opacity: 0.20; stroke: none;" id="ezcGraphPolygon_83"/><path d=" M 148.8071,173.9000 L 148.3389,173.9000 L 95.3389,226.9000 L 95.8071,226.9000 L 148.8071,173.9000 z " style="fill: none; stroke: #2e3436; stroke-width: 1; stroke-opacity: 1.00; stroke-linecap: round; stroke-linejoin: round;" id="ezcGraphPolygon_84"/><path d=" M 905.4000,141.0000 L 148.6000,141.0000" style="fill: none; stroke: #000000; stroke-width: 1; stroke-opacity: 0.00; stroke-linecap: round; stroke-linejoin: round;" id="ezcGraphLine_85"/><path d=" M 94.6000,195.0000 L 148.6000,141.0000 L 149.5460,141.0000 L 95.5460,195.0000 L 94.6000,195.0000 z " style="fill: #2e3436; fill-opacity: 0.20; stroke: none;" id="ezcGraphPolygon_86"/><path d=" M 148.8071,141.5000 L 148.3389,141.5000 L 95.3389,194.5000 L 95.8071,194.5000 L 148.8071,141.5000 z " style="fill: none; stroke: #2e3436; stroke-width: 1; stroke-opacity: 1.00; stroke-linecap: round; stroke-linejoin: round;" id="ezcGraphPolygon_87"/><path d=" M 905.4000,108.6000 L 148.6000,108.6000" style="fill: none; stroke: #000000; stroke-width: 1; stroke-opacity: 0.00; stroke-linecap: round; stroke-linejoin: round;" id="ezcGraphLine_88"/><path d=" M 94.6000,162.6000 L 148.6000,108.6000 L 151.4380,108.6000 L 97.4380,162.6000 L 94.6000,162.6000 z " style="fill: #2e3436; fill-opacity: 0.20; stroke: none;" id="ezcGraphPolygon_89"/><path d=" M 148.8071,109.1000 L 150.2309,109.1000 L 97.2309,162.1000 L 95.8071,162.1000 L 148.8071,109.1000 z " style="fill: none; stroke: #2e3436; stroke-width: 1; stroke-opacity: 1.00; stroke-linecap: round; stroke-linejoin: round;" id="ezcGraphPolygon_90"/><path d=" M 170.0241,546.0000 L 105.6559,546.0000 L 105.6559,546.0000 L 170.0241,546.0000 L 170.0241,546.0000 z " style="fill: #3465a4; fill-opacity: 1.00; stroke: none;" id="ezcGraphPolygon_92"/><path d=" M 148.8559,502.8000 L 105.6559,546.0000 L 170.0241,546.0000 L 213.2241,502.8000 L 148.8559,502.8000 z " style="fill: #1f3d62; fill-opacity: 1.00; stroke: none;" id="ezcGraphPolygon_93"/><path d=" M 170.0241,546.0000 L 105.6559,546.0000 L 105.6559,546.0000 L 170.0241,546.0000 L 170.0241,546.0000 z " style="fill: url(#LinearGradient_170_546_105_546_ffffffff_ffffff7f); stroke: none;" id="ezcGraphPolygon_94"/><path d=" M 148.8559,502.8000 L 105.6559,546.0000 L 170.0241,546.0000 L 213.2241,502.8000 L 148.8559,502.8000 z " style="fill: url(#LinearGradient_213_502_105_546_ffffffff_ffffff7f); stroke: none;" id="ezcGraphPolygon_95"/><path d=" M 213.2241,502.8000 L 170.0241,546.0000 L 170.0241,546.0000 L 213.2241,502.8000 L 213.2241,502.8000 z " style="fill: #2a5183; fill-opacity: 1.00; stroke: none;" id="ezcGraphPolygon_96"/><path d=" M 245.7041,546.0000 L 181.3359,546.0000 L 181.3359,546.0000 L 245.7041,546.0000 L 245.7041,546.0000 z " style="fill: #3465a4; fill-opacity: 1.00; stroke: none;" id="ezcGraphPolygon_97"/><path d=" M 224.5359,502.8000 L 181.3359,546.0000 L 245.7041,546.0000 L 288.9041,502.8000 L 224.5359,502.8000 z " style="fill: #1f3d62; fill-opacity: 1.00; stroke: none;" id="ezcGraphPolygon_98"/><path d=" M 245.7041,546.0000 L 181.3359,546.0000 L 181.3359,546.0000 L 245.7041,546.0000 L 245.7041,546.0000 z " style="fill: url(#LinearGradient_245_546_181_546_ffffffff_ffffff7f); stroke: none;" id="ezcGraphPolygon_99"/><path d=" M 224.5359,502.8000 L 181.3359,546.0000 L 245.7041,546.0000 L 288.9041,502.8000 L 224.5359,502.8000 z " style="fill: url(#LinearGradient_288_502_181_546_ffffffff_ffffff7f); stroke: none;" id="ezcGraphPolygon_100"/><path d=" M 288.9041,502.8000 L 245.7041,546.0000 L 245.7041,546.0000 L 288.9041,502.8000 L 288.9041,502.8000 z " style="fill: #2a5183; fill-opacity: 1.00; stroke: none;" id="ezcGraphPolygon_101"/><path d=" M 321.3841,546.0000 L 257.0159,546.0000 L 257.0159,546.0000 L 321.3841,546.0000 L 321.3841,546.0000 z " style="fill: #3465a4; fill-opacity: 1.00; stroke: none;" id="ezcGraphPolygon_102"/><path d=" M 300.2159,502.8000 L 257.0159,546.0000 L 321.3841,546.0000 L 364.5841,502.8000 L 300.2159,502.8000 z " style="fill: #1f3d62; fill-opacity: 1.00; stroke: none;" id="ezcGraphPolygon_103"/><path d=" M 321.3841,546.0000 L 257.0159,546.0000 L 257.0159,546.0000 L 321.3841,546.0000 L 321.3841,546.0000 z " style="fill: url(#LinearGradient_321_546_257_546_ffffffff_ffffff7f); stroke: none;" id="ezcGraphPolygon_104"/><path d=" M 300.2159,502.8000 L 257.0159,546.0000 L 321.3841,546.0000 L 364.5841,502.8000 L 300.2159,502.8000 z " style="fill: url(#LinearGradient_364_502_257_546_ffffffff_ffffff7f); stroke: none;" id="ezcGraphPolygon_105"/><path d=" M 364.5841,502.8000 L 321.3841,546.0000 L 321.3841,546.0000 L 364.5841,502.8000 L 364.5841,502.8000 z " style="fill: #2a5183; fill-opacity: 1.00; stroke: none;" id="ezcGraphPolygon_106"/><path d=" M 397.0641,546.0000 L 332.6959,546.0000 L 332.6959,546.0000 L 397.0641,546.0000 L 397.0641,546.0000 z " style="fill: #3465a4; fill-opacity: 1.00; stroke: none;" id="ezcGraphPolygon_107"/><path d=" M 375.8959,502.8000 L 332.6959,546.0000 L 397.0641,546.0000 L 440.2641,502.8000 L 375.8959,502.8000 z " style="fill: #1f3d62; fill-opacity: 1.00; stroke: none;" id="ezcGraphPolygon_108"/><path d=" M 397.0641,546.0000 L 332.6959,546.0000 L 332.6959,546.0000 L 397.0641,546.0000 L 397.0641,546.0000 z " style="fill: url(#LinearGradient_397_546_332_546_ffffffff_ffffff7f); stroke: none;" id="ezcGraphPolygon_109"/><path d=" M 375.8959,502.8000 L 332.6959,546.0000 L 397.0641,546.0000 L 440.2641,502.8000 L 375.8959,502.8000 z " style="fill: url(#LinearGradient_440_502_332_546_ffffffff_ffffff7f); stroke: none;" id="ezcGraphPolygon_110"/><path d=" M 440.2641,502.8000 L 397.0641,546.0000 L 397.0641,546.0000 L 440.2641,502.8000 L 440.2641,502.8000 z " style="fill: #2a5183; fill-opacity: 1.00; stroke: none;" id="ezcGraphPolygon_111"/><path d=" M 451.5759,114.0000 L 408.3759,157.2000 L 472.7441,157.2000 L 515.9441,114.0000 L 451.5759,114.0000 z " style="fill: #1f3d62; fill-opacity: 1.00; stroke: none;" id="ezcGraphPolygon_112"/><path d=" M 472.7441,546.0000 L 408.3759,546.0000 L 408.3759,157.2000 L 472.7441,157.2000 L 472.7441,546.0000 z " style="fill: #3465a4; fill-opacity: 1.00; stroke: none;" id="ezcGraphPolygon_113"/><path d=" M 451.5759,114.0000 L 408.3759,157.2000 L 472.7441,157.2000 L 515.9441,114.0000 L 451.5759,114.0000 z " style="fill: url(#LinearGradient_515_114_408_157_ffffffff_ffffff7f); stroke: none;" id="ezcGraphPolygon_114"/><path d=" M 472.7441,546.0000 L 408.3759,546.0000 L 408.3759,157.2000 L 472.7441,157.2000 L 472.7441,546.0000 z " style="fill: url(#LinearGradient_472_546_408_157_ffffffff_ffffff7f); stroke: none;" id="ezcGraphPolygon_115"/><path d=" M 515.9441,114.0000 L 472.7441,157.2000 L 472.7441,546.0000 L 515.9441,502.8000 L 515.9441,114.0000 z " style="fill: #2a5183; fill-opacity: 1.00; stroke: none;" id="ezcGraphPolygon_116"/><path d=" M 527.2559,243.6000 L 484.0559,286.8000 L 548.4241,286.8000 L 591.6241,243.6000 L 527.2559,243.6000 z " style="fill: #1f3d62; fill-opacity: 1.00; stroke: none;" id="ezcGraphPolygon_117"/><path d=" M 548.4241,546.0000 L 484.0559,546.0000 L 484.0559,286.8000 L 548.4241,286.8000 L 548.4241,546.0000 z " style="fill: #3465a4; fill-opacity: 1.00; stroke: none;" id="ezcGraphPolygon_118"/><path d=" M 527.2559,243.6000 L 484.0559,286.8000 L 548.4241,286.8000 L 591.6241,243.6000 L 527.2559,243.6000 z " style="fill: url(#LinearGradient_591_243_484_286_ffffffff_ffffff7f); stroke: none;" id="ezcGraphPolygon_119"/><path d=" M 548.4241,546.0000 L 484.0559,546.0000 L 484.0559,286.8000 L 548.4241,286.8000 L 548.4241,546.0000 z " style="fill: url(#LinearGradient_548_546_484_286_ffffffff_ffffff7f); stroke: none;" id="ezcGraphPolygon_120"/><path d=" M 591.6241,243.6000 L 548.4241,286.8000 L 548.4241,546.0000 L 591.6241,502.8000 L 591.6241,243.6000 z " style="fill: #2a5183; fill-opacity: 1.00; stroke: none;" id="ezcGraphPolygon_121"/><path d=" M 602.9359,373.2000 L 559.7359,416.4000 L 624.1041,416.4000 L 667.3041,373.2000 L 602.9359,373.2000 z " style="fill: #1f3d62; fill-opacity: 1.00; stroke: none;" id="ezcGraphPolygon_122"/><path d=" M 624.1041,546.0000 L 559.7359,546.0000 L 559.7359,416.4000 L 624.1041,416.4000 L 624.1041,546.0000 z " style="fill: #3465a4; fill-opacity: 1.00; stroke: none;" id="ezcGraphPolygon_123"/><path d=" M 602.9359,373.2000 L 559.7359,416.4000 L 624.1041,416.4000 L 667.3041,373.2000 L 602.9359,373.2000 z " style="fill: url(#LinearGradient_667_373_559_416_ffffffff_ffffff7f); stroke: none;" id="ezcGraphPolygon_124"/><path d=" M 624.1041,546.0000 L 559.7359,546.0000 L 559.7359,416.4000 L 624.1041,416.4000 L 624.1041,546.0000 z " style="fill: url(#LinearGradient_624_546_559_416_ffffffff_ffffff7f); stroke: none;" id="ezcGraphPolygon_125"/><path d=" M 667.3041,373.2000 L 624.1041,416.4000 L 624.1041,546.0000 L 667.3041,502.8000 L 667.3041,373.2000 z " style="fill: #2a5183; fill-opacity: 1.00; stroke: none;" id="ezcGraphPolygon_126"/><path d=" M 678.6159,373.2000 L 635.4159,416.4000 L 699.7841,416.4000 L 742.9841,373.2000 L 678.6159,373.2000 z " style="fill: #1f3d62; fill-opacity: 1.00; stroke: none;" id="ezcGraphPolygon_127"/><path d=" M 699.7841,546.0000 L 635.4159,546.0000 L 635.4159,416.4000 L 699.7841,416.4000 L 699.7841,546.0000 z " style="fill: #3465a4; fill-opacity: 1.00; stroke: none;" id="ezcGraphPolygon_128"/><path d=" M 678.6159,373.2000 L 635.4159,416.4000 L 699.7841,416.4000 L 742.9841,373.2000 L 678.6159,373.2000 z " style="fill: url(#LinearGradient_742_373_635_416_ffffffff_ffffff7f); stroke: none;" id="ezcGraphPolygon_129"/><path d=" M 699.7841,546.0000 L 635.4159,546.0000 L 635.4159,416.4000 L 699.7841,416.4000 L 699.7841,546.0000 z " style="fill: url(#LinearGradient_699_546_635_416_ffffffff_ffffff7f); stroke: none;" id="ezcGraphPolygon_130"/><path d=" M 742.9841,373.2000 L 699.7841,416.4000 L 699.7841,546.0000 L 742.9841,502.8000 L 742.9841,373.2000 z " style="fill: #2a5183; fill-opacity: 1.00; stroke: none;" id="ezcGraphPolygon_131"/><path d=" M 775.4641,546.0000 L 711.0959,546.0000 L 711.0959,546.0000 L 775.4641,546.0000 L 775.4641,546.0000 z " style="fill: #3465a4; fill-opacity: 1.00; stroke: none;" id="ezcGraphPolygon_132"/><path d=" M 754.2959,502.8000 L 711.0959,546.0000 L 775.4641,546.0000 L 818.6641,502.8000 L 754.2959,502.8000 z " style="fill: #1f3d62; fill-opacity: 1.00; stroke: none;" id="ezcGraphPolygon_133"/><path d=" M 775.4641,546.0000 L 711.0959,546.0000 L 711.0959,546.0000 L 775.4641,546.0000 L 775.4641,546.0000 z " style="fill: url(#LinearGradient_775_546_711_546_ffffffff_ffffff7f); stroke: none;" id="ezcGraphPolygon_134"/><path d=" M 754.2959,502.8000 L 711.0959,546.0000 L 775.4641,546.0000 L 818.6641,502.8000 L 754.2959,502.8000 z " style="fill: url(#LinearGradient_818_502_711_546_ffffffff_ffffff7f); stroke: none;" id="ezcGraphPolygon_135"/><path d=" M 818.6641,502.8000 L 775.4641,546.0000 L 775.4641,546.0000 L 818.6641,502.8000 L 818.6641,502.8000 z " style="fill: #2a5183; fill-opacity: 1.00; stroke: none;" id="ezcGraphPolygon_136"/><path d=" M 851.1441,546.0000 L 786.7759,546.0000 L 786.7759,546.0000 L 851.1441,546.0000 L 851.1441,546.0000 z " style="fill: #3465a4; fill-opacity: 1.00; stroke: none;" id="ezcGraphPolygon_137"/><path d=" M 829.9759,502.8000 L 786.7759,546.0000 L 851.1441,546.0000 L 894.3441,502.8000 L 829.9759,502.8000 z " style="fill: #1f3d62; fill-opacity: 1.00; stroke: none;" id="ezcGraphPolygon_138"/><path d=" M 851.1441,546.0000 L 786.7759,546.0000 L 786.7759,546.0000 L 851.1441,546.0000 L 851.1441,546.0000 z " style="fill: url(#LinearGradient_851_546_786_546_ffffffff_ffffff7f); stroke: none;" id="ezcGraphPolygon_139"/><path d=" M 829.9759,502.8000 L 786.7759,546.0000 L 851.1441,546.0000 L 894.3441,502.8000 L 829.9759,502.8000 z " style="fill: url(#LinearGradient_894_502_786_546_ffffffff_ffffff7f); stroke: none;" id="ezcGraphPolygon_140"/><path d=" M 894.3441,502.8000 L 851.1441,546.0000 L 851.1441,546.0000 L 894.3441,502.8000 L 894.3441,502.8000 z " style="fill: #2a5183; fill-opacity: 1.00; stroke: none;" id="ezcGraphPolygon_141"/><path d=" M 1000.0000,497.4000 L 946.0000,551.4000" style="fill: none; stroke: #2e3436; stroke-width: 1; stroke-opacity: 1.00; stroke-linecap: round; stroke-linejoin: round;" id="ezcGraphLine_142"/><path d=" M 946.0000,551.4000 L 0.0000,551.4000" style="fill: none; stroke: #2e3436; stroke-width: 1; stroke-opacity: 1.00; stroke-linecap: round; stroke-linejoin: round;" id="ezcGraphLine_143"/><path d=" M 0.0000,551.4000 L 54.0000,497.4000" style="fill: none; stroke: #2e3436; stroke-width: 1; stroke-opacity: 1.00; stroke-linecap: round; stroke-linejoin: round;" id="ezcGraphLine_144"/><path d=" M 148.6000,60.0000 L 94.6000,114.0000" style="fill: none; stroke: #2e3436; stroke-width: 1; stroke-opacity: 1.00; stroke-linecap: round; stroke-linejoin: round;" id="ezcGraphLine_145"/><path d=" M 94.6000,114.0000 L 94.6000,600.0000" style="fill: none; stroke: #2e3436; stroke-width: 1; stroke-opacity: 1.00; stroke-linecap: round; stroke-linejoin: round;" id="ezcGraphLine_146"/><path d=" M 94.6000,600.0000 L 148.6000,546.0000" style="fill: none; stroke: #2e3436; stroke-width: 1; stroke-opacity: 1.00; stroke-linecap: round; stroke-linejoin: round;" id="ezcGraphLine_147"/><g id="ezcGraphTextBox_3"><path d=" M 499.5000,60.0000 L 499.5000,0.5000 L 501.0000,0.5000 L 501.0000,60.0000 L 499.5000,60.0000 z " style="fill: #ffffff; fill-opacity: 0.00; stroke: none;" id="ezcGraphPolygon_148"/><text id="ezcGraphTextBox_3_text" x="500.0000" text-length="0.0000px" y="50.3000" style="font-size: 58px; font-family: 'sans-serif'; fill: #2e3436; fill-opacity: 1.00; stroke: none;"/></g><g id="ezcGraphTextBox_7"><path d=" M 952.9800,496.4000 L 952.9800,480.9000 L 999.0000,480.9000 L 999.0000,496.4000 L 952.9800,496.4000 z " style="fill: #ffffff; fill-opacity: 0.00; stroke: none;" id="ezcGraphPolygon_149"/><text id="ezcGraphTextBox_7_text" x="953.4800" text-length="44.5200px" y="493.3000" style="font-size: 14px; font-family: 'sans-serif'; fill: #2e3436; fill-opacity: 1.00; stroke: none;">Rating</text></g><g id="ezcGraphTextBox_11"><path d=" M 150.1000,77.0000 L 150.1000,61.5000 L 218.3800,61.5000 L 218.3800,77.0000 L 150.1000,77.0000 z " style="fill: #ffffff; fill-opacity: 0.00; stroke: none;" id="ezcGraphPolygon_150"/><text id="ezcGraphTextBox_11_text" x="150.6000" text-length="66.7800px" y="73.9000" style="font-size: 14px; font-family: 'sans-serif'; fill: #2e3436; fill-opacity: 1.00; stroke: none;">No. Users</text></g><g id="ezcGraphTextBox_12"><path d=" M 124.5200,568.2000 L 124.5200,552.7000 L 140.8600,552.7000 L 140.8600,568.2000 L 124.5200,568.2000 z " style="fill: #ffffff; fill-opacity: 0.00; stroke: none;" id="ezcGraphPolygon_151"/><text id="ezcGraphTextBox_12_text" x="125.0200" text-length="14.8400px" y="565.1000" style="font-size: 14px; font-family: 'sans-serif'; fill: #2e3436; fill-opacity: 1.00; stroke: none;">F5</text></g><g id="ezcGraphTextBox_16"><path d=" M 200.2000,568.2000 L 200.2000,552.7000 L 216.5400,552.7000 L 216.5400,568.2000 L 200.2000,568.2000 z " style="fill: #ffffff; fill-opacity: 0.00; stroke: none;" id="ezcGraphPolygon_152"/><text id="ezcGraphTextBox_16_text" x="200.7000" text-length="14.8400px" y="565.1000" style="font-size: 14px; font-family: 'sans-serif'; fill: #2e3436; fill-opacity: 1.00; stroke: none;">F4</text></g><g id="ezcGraphTextBox_20"><path d=" M 275.8800,568.2000 L 275.8800,552.7000 L 292.2200,552.7000 L 292.2200,568.2000 L 275.8800,568.2000 z " style="fill: #ffffff; fill-opacity: 0.00; stroke: none;" id="ezcGraphPolygon_153"/><text id="ezcGraphTextBox_20_text" x="276.3800" text-length="14.8400px" y="565.1000" style="font-size: 14px; font-family: 'sans-serif'; fill: #2e3436; fill-opacity: 1.00; stroke: none;">F3</text></g><g id="ezcGraphTextBox_24"><path d=" M 351.5600,568.2000 L 351.5600,552.7000 L 367.9000,552.7000 L 367.9000,568.2000 L 351.5600,568.2000 z " style="fill: #ffffff; fill-opacity: 0.00; stroke: none;" id="ezcGraphPolygon_154"/><text id="ezcGraphTextBox_24_text" x="352.0600" text-length="14.8400px" y="565.1000" style="font-size: 14px; font-family: 'sans-serif'; fill: #2e3436; fill-opacity: 1.00; stroke: none;">F2</text></g><g id="ezcGraphTextBox_28"><path d=" M 427.2400,568.2000 L 427.2400,552.7000 L 443.5800,552.7000 L 443.5800,568.2000 L 427.2400,568.2000 z " style="fill: #ffffff; fill-opacity: 0.00; stroke: none;" id="ezcGraphPolygon_155"/><text id="ezcGraphTextBox_28_text" x="427.7400" text-length="14.8400px" y="565.1000" style="font-size: 14px; font-family: 'sans-serif'; fill: #2e3436; fill-opacity: 1.00; stroke: none;">F1</text></g><g id="ezcGraphTextBox_32"><path d=" M 502.9200,568.2000 L 502.9200,552.7000 L 519.2600,552.7000 L 519.2600,568.2000 L 502.9200,568.2000 z " style="fill: #ffffff; fill-opacity: 0.00; stroke: none;" id="ezcGraphPolygon_156"/><text id="ezcGraphTextBox_32_text" x="503.4200" text-length="14.8400px" y="565.1000" style="font-size: 14px; font-family: 'sans-serif'; fill: #2e3436; fill-opacity: 1.00; stroke: none;">G1</text></g><g id="ezcGraphTextBox_36"><path d=" M 578.6000,568.2000 L 578.6000,552.7000 L 594.9400,552.7000 L 594.9400,568.2000 L 578.6000,568.2000 z " style="fill: #ffffff; fill-opacity: 0.00; stroke: none;" id="ezcGraphPolygon_157"/><text id="ezcGraphTextBox_36_text" x="579.1000" text-length="14.8400px" y="565.1000" style="font-size: 14px; font-family: 'sans-serif'; fill: #2e3436; fill-opacity: 1.00; stroke: none;">G2</text></g><g id="ezcGraphTextBox_40"><path d=" M 654.2800,568.2000 L 654.2800,552.7000 L 670.6200,552.7000 L 670.6200,568.2000 L 654.2800,568.2000 z " style="fill: #ffffff; fill-opacity: 0.00; stroke: none;" id="ezcGraphPolygon_158"/><text id="ezcGraphTextBox_40_text" x="654.7800" text-length="14.8400px" y="565.1000" style="font-size: 14px; font-family: 'sans-serif'; fill: #2e3436; fill-opacity: 1.00; stroke: none;">G3</text></g><g id="ezcGraphTextBox_44"><path d=" M 729.9600,568.2000 L 729.9600,552.7000 L 746.3000,552.7000 L 746.3000,568.2000 L 729.9600,568.2000 z " style="fill: #ffffff; fill-opacity: 0.00; stroke: none;" id="ezcGraphPolygon_159"/><text id="ezcGraphTextBox_44_text" x="730.4600" text-length="14.8400px" y="565.1000" style="font-size: 14px; font-family: 'sans-serif'; fill: #2e3436; fill-opacity: 1.00; stroke: none;">G4</text></g><g id="ezcGraphTextBox_48"><path d=" M 805.6400,568.2000 L 805.6400,552.7000 L 821.9800,552.7000 L 821.9800,568.2000 L 805.6400,568.2000 z " style="fill: #ffffff; fill-opacity: 0.00; stroke: none;" id="ezcGraphPolygon_160"/><text id="ezcGraphTextBox_48_text" x="806.1400" text-length="14.8400px" y="565.1000" style="font-size: 14px; font-family: 'sans-serif'; fill: #2e3436; fill-opacity: 1.00; stroke: none;">G5</text></g><g id="ezcGraphTextBox_52"><path d=" M 83.5280,550.6000 L 83.5280,535.1000 L 93.7080,535.1000 L 93.7080,550.6000 L 83.5280,550.6000 z " style="fill: #ffffff; fill-opacity: 0.00; stroke: none;" id="ezcGraphPolygon_161"/><text id="ezcGraphTextBox_52_text" x="84.0280" text-length="8.6800px" y="547.5000" style="font-size: 14px; font-family: 'sans-serif'; fill: #2e3436; fill-opacity: 1.00; stroke: none;">0</text></g><g id="ezcGraphTextBox_65"><path d=" M 83.5280,421.0000 L 83.5280,405.5000 L 93.7080,405.5000 L 93.7080,421.0000 L 83.5280,421.0000 z " style="fill: #ffffff; fill-opacity: 0.00; stroke: none;" id="ezcGraphPolygon_162"/><text id="ezcGraphTextBox_65_text" x="84.0280" text-length="8.6800px" y="417.9000" style="font-size: 14px; font-family: 'sans-serif'; fill: #2e3436; fill-opacity: 1.00; stroke: none;">1</text></g><g id="ezcGraphTextBox_78"><path d=" M 83.5280,291.4000 L 83.5280,275.9000 L 93.7080,275.9000 L 93.7080,291.4000 L 83.5280,291.4000 z " style="fill: #ffffff; fill-opacity: 0.00; stroke: none;" id="ezcGraphPolygon_163"/><text id="ezcGraphTextBox_78_text" x="84.0280" text-length="8.6800px" y="288.3000" style="font-size: 14px; font-family: 'sans-serif'; fill: #2e3436; fill-opacity: 1.00; stroke: none;">2</text></g><g id="ezcGraphTextBox_91"><path d=" M 83.5280,179.4000 L 83.5280,163.9000 L 93.7080,163.9000 L 93.7080,179.4000 L 83.5280,179.4000 z " style="fill: #ffffff; fill-opacity: 0.00; stroke: none;" id="ezcGraphPolygon_164"/><text id="ezcGraphTextBox_91_text" x="84.0280" text-length="8.6800px" y="176.3000" style="font-size: 14px; font-family: 'sans-serif'; fill: #2e3436; fill-opacity: 1.00; stroke: none;">3</text></g></g></svg>
